<?xml version="1.0" encoding="utf-8"?>
<!-- Generator: Adobe Illustrator 28.2.0, SVG Export Plug-In . SVG Version: 6.00 Build 0)  -->
<svg version="1.1" id="Capa_1" xmlns="http://www.w3.org/2000/svg" xmlns:xlink="http://www.w3.org/1999/xlink" x="0px" y="0px"
	 viewBox="0 0 640 512" style="enable-background:new 0 0 640 512;" xml:space="preserve">
<style type="text/css">
	.st0{fill:#7E7099;}
</style>
<path class="st0" d="M64,96c0-35.3,28.7-64,64-64h384c35.3,0,64,28.7,64,64v256h-64V96H128v256H64V96z M0,403.2
	C0,392.6,8.6,384,19.2,384h601.6c10.6,0,19.2,8.6,19.2,19.2c0,42.4-34.4,76.8-76.8,76.8H76.8C34.4,480,0,445.6,0,403.2z M281,209
	l-31,31l31,31c9.4,9.4,9.4,24.6,0,33.9s-24.6,9.4-33.9,0l-48-48c-9.4-9.4-9.4-24.6,0-33.9l48-48c9.4-9.4,24.6-9.4,33.9,0
	s9.4,24.6,0,33.9V209z M393,175l48,48c9.4,9.4,9.4,24.6,0,33.9l-48,48c-9.4,9.4-24.6,9.4-33.9,0s-9.4-24.6,0-33.9l31-31l-31-31
	c-9.4-9.4-9.4-24.6,0-33.9s24.6-9.4,33.9,0V175z"/>
</svg>
